<?xml version="1.0" encoding="utf-8"?>
<!-- Generator: Adobe Illustrator 23.0.2, SVG Export Plug-In . SVG Version: 6.00 Build 0)  -->
<svg version="1.1" id="Layer_1" xmlns="http://www.w3.org/2000/svg" xmlns:xlink="http://www.w3.org/1999/xlink" x="0px" y="0px"
	 viewBox="0 0 11 11" style="enable-background:new 0 0 11 11;" xml:space="preserve">
<style type="text/css">
	.st0{fill:#46CCF6;}
</style>
<g>
	<g>
		<g>
			<path class="st0" d="M5.5,11C2.5,11,0,8.5,0,5.5S2.5,0,5.5,0S11,2.5,11,5.5S8.5,11,5.5,11z M5.5,0.9C3,0.9,0.9,3,0.9,5.5
				s2.1,4.6,4.6,4.6s4.6-2.1,4.6-4.6S8,0.9,5.5,0.9z"/>
		</g>
	</g>
	<g>
		<g>
			<path class="st0" d="M5.5,6C5.2,6,5,5.8,5,5.5V2.3C5,2,5.2,1.8,5.5,1.8S6,2,6,2.3v3.2C6,5.8,5.8,6,5.5,6z"/>
		</g>
	</g>
	<g>
		<g>
			<path class="st0" d="M7.3,7.8c-0.1,0-0.2,0-0.3-0.1L5.2,5.8C5,5.6,5,5.4,5.2,5.2C5.4,5,5.6,5,5.8,5.2L7.7,7
				c0.2,0.2,0.2,0.5,0,0.6C7.6,7.7,7.5,7.8,7.3,7.8z"/>
		</g>
	</g>
</g>
</svg>
