<?xml version="1.0" encoding="utf-8"?>
<!-- Generator: Adobe Illustrator 23.0.2, SVG Export Plug-In . SVG Version: 6.00 Build 0)  -->
<svg version="1.1" id="Слой_1" xmlns="http://www.w3.org/2000/svg" xmlns:xlink="http://www.w3.org/1999/xlink" x="0px" y="0px"
	 viewBox="0 0 25 25" style="enable-background:new 0 0 25 25;" xml:space="preserve">
<style type="text/css">
	.st0{fill:#00355B;}
</style>
<path class="st0" d="M25,6.45C24.97,2.88,22.07,0,18.5,0C14.5,0,10.49,0,6.49,0C2.9,0.01,0,2.91,0,6.5c0,4.01,0,8.01,0,12.02
	c0.01,3.56,2.88,6.45,6.44,6.48c2.23,0,4.46,0,6.68,0c0.07,0,0.13,0,0.2,0c0-3.23,0-6.43,0-9.65c-0.09,0-0.16,0-0.23,0
	c-0.92,0-1.85,0-2.77,0c-0.25,0-0.25,0-0.25-0.25c0-1.11,0-2.23,0-3.34c0-0.23,0-0.24,0.23-0.24c0.94,0,1.88,0,2.82,0
	c0.07,0,0.14-0.01,0.22-0.01c0-0.08,0-0.14,0-0.2c0-0.83-0.01-1.67,0-2.5c0.01-0.43,0.04-0.85,0.1-1.27
	c0.13-0.83,0.45-1.6,1.01-2.24c0.92-1.06,2.13-1.5,3.49-1.52c1-0.02,2,0.08,3,0.12c0.18,0.01,0.21,0.08,0.21,0.24
	c-0.01,0.99,0,1.98,0,2.97c0,0.23,0,0.22-0.24,0.23c-0.78,0.01-1.55,0-2.33,0.04c-0.56,0.03-1.02,0.3-1.2,0.88
	c-0.07,0.22-0.11,0.45-0.11,0.68c-0.01,0.82-0.01,1.63-0.01,2.45c0,0.05,0.01,0.1,0.01,0.17c1.24,0,2.47,0,3.72,0
	c-0.06,0.47-0.11,0.91-0.17,1.36c-0.1,0.75-0.2,1.5-0.29,2.25c-0.02,0.15-0.07,0.21-0.23,0.21c-0.94-0.01-1.88,0-2.82,0
	c-0.07,0-0.14,0.01-0.22,0.01c0,3.21,0,6.41,0,9.62c0.05,0,0.09,0.01,0.12,0.01c0.43,0,0.85,0,1.28,0c3.5-0.1,6.31-2.95,6.32-6.48
	C25,14.49,25,10.47,25,6.45z"/>
</svg>
