<?xml version="1.0" encoding="utf-8"?>
<!-- Generator: Adobe Illustrator 23.0.2, SVG Export Plug-In . SVG Version: 6.00 Build 0)  -->
<svg version="1.1" id="Слой_1" xmlns="http://www.w3.org/2000/svg" xmlns:xlink="http://www.w3.org/1999/xlink" x="0px" y="0px"
	 viewBox="0 0 25 25" style="enable-background:new 0 0 25 25;" xml:space="preserve">
<style type="text/css">
	.st0{fill:#00355B;}
</style>
<g>
	<path class="st0" d="M18.96,25c-4.31,0-8.61,0-12.92,0c-0.05-0.01-0.1-0.03-0.15-0.03c-2.72-0.25-5.01-2.2-5.68-4.86
		C0.11,19.75,0.07,19.37,0,18.99c0-4.33,0-8.66,0-12.99C0.01,5.95,0.03,5.9,0.03,5.84c0.26-2.68,2.21-4.96,4.82-5.63
		C5.23,0.12,5.62,0.07,6.01,0c4.33,0,8.66,0,12.99,0c0.05,0.01,0.1,0.03,0.15,0.03c2.75,0.26,5.08,2.3,5.68,4.99
		C24.9,5.35,24.94,5.68,25,6.01c0,4.32,0,8.63,0,12.95c-0.01,0.06-0.03,0.11-0.03,0.17c-0.26,2.77-2.29,5.09-5.01,5.7
		C19.63,24.9,19.29,24.94,18.96,25z M2.14,12.5c0,2.01-0.01,4.03,0,6.04c0.01,2.4,1.94,4.33,4.34,4.34c4.01,0,8.02,0,12.03,0
		c2.42,0,4.36-1.94,4.36-4.36c0-4,0-8.01,0-12.01c0-0.21-0.01-0.42-0.04-0.62c-0.34-2.2-2.14-3.74-4.37-3.74c-3.98,0-7.95,0-11.93,0
		c-0.26,0-0.52,0.01-0.78,0.06C3.62,2.59,2.14,4.37,2.14,6.55C2.14,8.53,2.14,10.51,2.14,12.5z"/>
	<path class="st0" d="M18.73,12.5c0,3.43-2.78,6.22-6.21,6.23c-3.43,0-6.23-2.78-6.23-6.2c-0.01-3.44,2.79-6.24,6.22-6.24
		C15.94,6.29,18.73,9.07,18.73,12.5z M8.19,12.51c0,2.38,1.93,4.32,4.31,4.33c2.39,0,4.34-1.94,4.34-4.32
		c0-2.39-1.94-4.33-4.33-4.32C10.12,8.19,8.19,10.13,8.19,12.51z"/>
	<path class="st0" d="M20.84,5.59c0,0.8-0.64,1.43-1.44,1.43c-0.8,0-1.43-0.64-1.43-1.43c0-0.8,0.64-1.43,1.44-1.43
		C20.21,4.16,20.85,4.8,20.84,5.59z"/>
</g>
</svg>
