<?xml version="1.0" encoding="utf-8"?>
<!-- Generator: Adobe Illustrator 23.0.2, SVG Export Plug-In . SVG Version: 6.00 Build 0)  -->
<svg version="1.1" id="Слой_1" xmlns="http://www.w3.org/2000/svg" xmlns:xlink="http://www.w3.org/1999/xlink" x="0px" y="0px"
	 viewBox="0 0 18 18" style="enable-background:new 0 0 18 18;" xml:space="preserve">
<style type="text/css">
	.st0{fill:#00355B;}
</style>
<g>
	<path class="st0" d="M18,5.39c0,2.6,0,5.2,0,7.8c-0.01,0.04-0.03,0.07-0.04,0.11c-0.23,1.36-1.38,2.35-2.76,2.35
		c-4.13,0.01-8.27,0.01-12.4,0c-1.25,0-2.33-0.82-2.68-2.01C0.07,13.5,0.04,13.34,0,13.19c0-2.6,0-5.2,0-7.8
		c0.01-0.04,0.03-0.07,0.04-0.11c0.23-1.35,1.37-2.35,2.74-2.35c4.14-0.01,8.28-0.01,12.42,0c1.25,0,2.32,0.81,2.68,2
		C17.93,5.07,17.96,5.23,18,5.39z M1.66,4.94C1.48,5.19,1.4,5.46,1.4,5.74c0,2.37-0.01,4.73,0,7.1c0,0.83,0.62,1.42,1.45,1.42
		c4.1,0,8.19,0,12.29,0c0.15,0,0.31-0.02,0.45-0.06c0.63-0.19,1-0.73,1-1.44c0-1.7,0-3.4,0-5.1c0-0.66,0-1.32-0.01-1.99
		c0-0.27-0.09-0.52-0.25-0.74c-0.02,0.02-0.04,0.03-0.05,0.04c-1.85,2.23-3.69,4.47-5.54,6.7c-1.01,1.21-2.59,1.2-3.59-0.02
		C5.67,9.84,4.19,8.03,2.7,6.22C2.36,5.8,2.01,5.38,1.66,4.94z M15,4.33c-4.02,0-8,0-12,0C3.04,4.4,3.07,4.45,3.11,4.49
		c1.71,2.09,3.43,4.19,5.15,6.27c0.11,0.14,0.26,0.26,0.42,0.33c0.34,0.17,0.7,0.03,1-0.33c1.52-1.84,3.04-3.67,4.56-5.51
		C14.48,4.96,14.73,4.66,15,4.33z"/>
</g>
</svg>
