<?xml version="1.0" encoding="utf-8"?>
<!-- Generator: Adobe Illustrator 23.0.2, SVG Export Plug-In . SVG Version: 6.00 Build 0)  -->
<svg version="1.1" id="Слой_1" xmlns="http://www.w3.org/2000/svg" xmlns:xlink="http://www.w3.org/1999/xlink" x="0px" y="0px"
	 viewBox="0 0 18 18" style="enable-background:new 0 0 18 18;" xml:space="preserve">
<style type="text/css">
	.st0{fill:#00355B;}
</style>
<g>
	<path class="st0" d="M9.61,14.93c-0.35,0.36-0.7,0.71-1.04,1.06c-0.31,0.31-0.61,0.64-0.93,0.94c-0.28,0.26-0.6,0.33-0.96,0.25
		c-0.32-0.07-0.52-0.3-0.67-0.59c-0.16-0.3-0.25-0.63-0.34-0.96c-0.39-1.4-0.77-2.79-1.15-4.19c-0.02-0.06-0.04-0.1-0.1-0.12
		c-1.11-0.41-2.21-0.82-3.31-1.24C0.75,9.96,0.47,9.73,0.25,9.41c-0.41-0.61-0.31-1.4,0.23-1.86C0.65,7.41,0.83,7.29,1.02,7.2
		C4.01,5.79,7,4.39,9.99,2.99c1.99-0.93,3.98-1.86,5.97-2.79c0.27-0.12,0.54-0.21,0.83-0.2c0.58,0.02,1.08,0.52,1.18,1.16
		c0.05,0.32,0.01,0.63-0.05,0.94c-0.23,1.3-0.46,2.6-0.69,3.91c-0.22,1.23-0.43,2.45-0.65,3.68c-0.2,1.17-0.41,2.34-0.61,3.51
		c-0.21,1.19-0.41,2.38-0.63,3.57c-0.04,0.21-0.16,0.39-0.28,0.56c-0.38,0.53-0.88,0.71-1.47,0.66c-0.19-0.02-0.38-0.07-0.56-0.16
		c-0.06-0.03-0.13-0.07-0.18-0.12c-1.07-0.91-2.14-1.82-3.2-2.73C9.65,14.96,9.63,14.95,9.61,14.93z M9.53,12.92
		c0.02,0.02,0.04,0.03,0.06,0.05c1.32,1.13,2.65,2.26,3.97,3.39c0.06,0.05,0.13,0.08,0.2,0.11c0.13,0.04,0.24-0.04,0.27-0.19
		c0.21-1.21,0.43-2.43,0.64-3.64c0.3-1.7,0.6-3.4,0.9-5.09c0.34-1.92,0.67-3.83,1.01-5.75c0.01-0.07,0.02-0.13,0.03-0.22
		C11.57,3.92,6.56,6.27,1.54,8.63C1.58,8.64,1.6,8.65,1.62,8.66c1.31,0.49,2.62,0.98,3.93,1.48c0.04,0.02,0.07,0.01,0.11-0.01
		C7.02,9.18,8.38,8.24,9.75,7.3c1.41-0.97,2.82-1.95,4.24-2.92c0.09-0.06,0.19-0.09,0.29-0.12c0.09-0.02,0.15,0.03,0.17,0.11
		c0.03,0.1,0.02,0.2-0.05,0.28c-0.05,0.05-0.09,0.11-0.14,0.16c-0.43,0.45-0.86,0.9-1.3,1.35C11.17,8,9.39,9.85,7.61,11.7
		c-0.02,0.02-0.04,0.06-0.05,0.1c-0.04,0.24-0.07,0.47-0.1,0.71c-0.12,0.84-0.24,1.69-0.36,2.53c-0.02,0.12-0.03,0.24-0.05,0.37
		c0,0,0.01,0,0.01,0.01C7.89,14.58,8.71,13.75,9.53,12.92z"/>
</g>
</svg>
