<?xml version="1.0" encoding="utf-8"?>
<!-- Generator: Adobe Illustrator 23.0.2, SVG Export Plug-In . SVG Version: 6.00 Build 0)  -->
<svg version="1.1" id="Слой_1" xmlns="http://www.w3.org/2000/svg" xmlns:xlink="http://www.w3.org/1999/xlink" x="0px" y="0px"
	 viewBox="0 0 18 18" style="enable-background:new 0 0 18 18;" xml:space="preserve">
<style type="text/css">
	.st0{fill:#00355B;}
</style>
<g>
	<g>
		<path class="st0" d="M6.08,15.75c-0.32-0.32-0.64-0.64-0.96-0.97c1.92-1.92,3.85-3.84,5.78-5.77c0.32,0.33,0.64,0.65,0.96,0.97
			C9.94,11.91,8.01,13.83,6.08,15.75z"/>
		<path class="st0" d="M9.94,15.76c-0.32-0.33-0.64-0.64-0.96-0.97c1.92-1.92,3.85-3.84,5.78-5.76c0.32,0.33,0.64,0.65,0.96,0.97
			C13.8,11.92,11.87,13.84,9.94,15.76z"/>
	</g>
	<g>
		<path class="st0" d="M13.58,18H4.42c-1.18,0-2.29-0.46-3.12-1.29C0.46,15.87,0,14.76,0,13.58V4.42c0-1.18,0.46-2.29,1.29-3.12
			S3.24,0,4.42,0h9.17c1.18,0,2.29,0.46,3.12,1.29C17.54,2.13,18,3.24,18,4.42v9.17c0,1.18-0.46,2.29-1.29,3.12
			C15.87,17.54,14.76,18,13.58,18z M4.42,1.33c-1.7,0-3.08,1.38-3.08,3.08v9.17c0,1.7,1.38,3.08,3.08,3.08h9.17
			c1.7,0,3.08-1.38,3.08-3.08V4.42c0-1.7-1.38-3.08-3.08-3.08H4.42z"/>
	</g>
</g>
</svg>
