<?xml version="1.0" encoding="utf-8"?>
<!-- Generator: Adobe Illustrator 16.0.0, SVG Export Plug-In . SVG Version: 6.00 Build 0)  -->
<!DOCTYPE svg PUBLIC "-//W3C//DTD SVG 1.1//EN" "http://www.w3.org/Graphics/SVG/1.1/DTD/svg11.dtd">
<svg version="1.1" id="Слой_1" xmlns="http://www.w3.org/2000/svg" xmlns:xlink="http://www.w3.org/1999/xlink" x="0px" y="0px"
	 width="283.465px" height="127.557px" viewBox="0 0 283.465 127.557" enable-background="new 0 0 283.465 127.557"
	 xml:space="preserve">
<g>
	<path fill="#1AC3F3" d="M10.796,81.361c-1.098-4.393-1.679-8.982-1.679-13.715c0-17.008,7.506-32.264,19.394-42.625
		c-0.405,0.68-0.754,1.251-1.041,1.735c-5.605,8.995-9.778,18.291-12.558,27.907C12.381,63.417,11.017,72.309,10.796,81.361
		 M21.352,102.774c-1.916-2.41-3.642-4.994-5.153-7.704c-0.398-1.805-0.739-3.619-1.003-5.456c-0.398-2.802-0.591-5.697-0.591-8.688
		c0-4.507,0.408-9.089,1.239-13.715c0.828-4.649,1.966-9.208,3.392-13.688c1.444-4.485,3.125-8.805,5.076-13.005
		c1.946-4.201,4.06-8.112,6.337-11.726c0.714-1.165,1.474-2.273,2.257-3.367c0.784-1.096,1.538-2.184,2.277-3.322
		c0.21-0.361,0.326-0.737,0.326-1.068c0-0.381-0.096-0.731-0.302-1.048c7.027-4.5,15.124-7.487,23.813-8.505
		c0.398,0.26,0.771,0.534,1.123,0.821c0.667,0.568,1.187,1.23,1.592,1.968c0.378,0.761,0.564,1.617,0.564,2.586
		c0,1.476-0.282,2.866-0.873,4.201c-0.594,1.306-1.377,2.584-2.354,3.842c-0.972,1.233-2.087,2.42-3.296,3.606
		c-1.236,1.165-2.49,2.35-3.797,3.517c-1.303,1.185-2.564,2.352-3.798,3.533c-1.207,1.191-2.322,2.423-3.296,3.706
		c-0.977,1.256-1.755,2.586-2.351,3.961c-0.594,1.377-0.878,2.823-0.878,4.337c0,1.69,0.374,3.095,1.11,4.203
		c0.761,1.117,1.755,2.092,2.972,2.873c1.234,0.804,2.633,1.521,4.218,2.11c1.567,0.591,3.157,1.209,4.799,1.853
		c1.634,0.638,3.227,1.35,4.792,2.157c1.592,0.784,2.992,1.78,4.223,2.992c1.211,1.188,2.21,2.661,2.967,4.341
		c0.734,1.706,1.115,3.771,1.115,6.217c0,2.681-0.403,5.12-1.231,7.334c-0.835,2.228-1.948,4.22-3.395,6.005
		c-1.427,1.774-3.135,3.326-5.076,4.647c-1.948,1.31-4.062,2.416-6.314,3.301c-2.255,0.852-4.628,1.52-7.094,1.946
		c-2.475,0.447-4.959,0.66-7.43,0.66c-2.796,0-5.526-0.26-8.184-0.757c-2.658-0.526-5.123-1.256-7.435-2.203
		c-0.636,1.469-0.945,2.918-0.945,4.314C20.752,100.699,20.956,101.768,21.352,102.774 M65.666,11.098
		c31.234,0,56.55,25.317,56.55,56.548c0,31.229-25.315,56.555-56.55,56.555c-15.058,0-28.743-5.887-38.875-15.49
		c0.546,0.334,1.123,0.646,1.723,0.934c1.493,0.729,3.085,1.321,4.723,1.8c1.659,0.475,3.303,0.833,4.955,1.068
		c1.664,0.236,3.229,0.354,4.703,0.354c3.296,0,6.542-0.376,9.751-1.14c3.204-0.76,6.24-1.871,9.111-3.318
		c2.873-1.446,5.531-3.206,7.974-5.293c2.423-2.09,4.535-4.461,6.288-7.123c1.778-2.658,3.157-5.573,4.151-8.75
		c1.001-3.185,1.496-6.574,1.496-10.182c0-4.132-0.64-7.86-1.923-11.153c-1.301-3.321-3.108-6.188-5.477-8.659
		c-2.352-2.47-5.2-4.484-8.545-6.075c-3.323-1.592-7.027-2.704-11.106-3.345c-0.378-0.047-0.759-0.094-1.187-0.119
		c-0.403-0.026-0.784-0.068-1.14-0.163c-0.356-0.099-0.638-0.215-0.875-0.407c-0.242-0.19-0.361-0.497-0.361-0.926
		c0-0.759,0.403-1.711,1.189-2.893c0.784-1.189,1.758-2.539,2.94-4.033c1.192-1.496,2.47-3.132,3.845-4.861
		c1.377-1.76,2.66-3.567,3.85-5.414c1.184-1.874,2.156-3.775,2.942-5.702c0.787-1.943,1.189-3.843,1.189-5.691
		c0-1.496-0.245-2.846-0.737-4.038c-0.363-0.91-0.826-1.73-1.402-2.478C65.126,11.103,65.394,11.098,65.666,11.098"/>
	<path fill="#117EB2" d="M59.185,10.536c-0.084-0.087-0.181-0.168-0.272-0.252c-0.667-0.542-1.402-1.043-2.26-1.446
		C55.8,8.462,54.924,8.124,54,7.89c-0.9-0.24-1.83-0.403-2.754-0.522c-0.952-0.119-1.81-0.166-2.613-0.166
		c-2.722,0-5.432,0.307-8.11,0.902c-2.705,0.596-5.338,1.445-7.88,2.562c-2.539,1.113-4.982,2.445-7.309,3.963
		c-2.354,1.541-4.515,3.251-6.505,5.147c-1.99,1.877-3.798,3.892-5.41,6.07c-1.617,2.163-2.964,4.413-4.06,6.762
		c-0.284,0.571-0.571,1.235-0.88,1.993c-0.284,0.764-0.641,1.498-0.997,2.186c-0.375,0.69-0.784,1.256-1.231,1.73
		c-0.455,0.478-0.95,0.715-1.471,0.715c-0.378,0-0.692-0.069-0.927-0.237c-0.262-0.168-0.45-0.378-0.613-0.666
		c-0.141-0.262-0.237-0.571-0.312-0.924c-0.069-0.334-0.094-0.692-0.094-1.071c0-1.325,0.264-2.729,0.759-4.176
		c0.495-1.424,1.137-2.846,1.946-4.245c0.786-1.398,1.689-2.754,2.658-4.035c1.001-1.301,1.973-2.486,2.947-3.532
		c2.206-2.421,4.74-4.676,7.615-6.74c2.878-2.061,5.956-3.86,9.208-5.385c3.249-1.519,6.619-2.708,10.085-3.556
		c3.484-0.885,6.953-1.308,10.392-1.308c1.325,0,2.68,0.094,4.032,0.282c1.377,0.189,2.703,0.475,3.988,0.883
		c1.278,0.397,2.487,0.922,3.607,1.563c1.137,0.618,2.111,1.402,2.967,2.303c0.554,0.604,1.029,1.254,1.427,1.966
		c-0.225,0-0.445-0.013-0.667-0.013C62.246,10.341,60.708,10.407,59.185,10.536 M27.664,24.939c0.329-0.549,0.729-1.214,1.189-2.002
		c0.546-0.878,1.068-1.733,1.634-2.518c0.571-0.801,1.12-1.494,1.664-2.062c0.568-0.566,1.068-0.854,1.518-0.854
		c0.497,0,0.924,0.19,1.33,0.568c0.294,0.297,0.477,0.648,0.537,1.029C32.742,20.823,30.108,22.776,27.664,24.939 M16.446,97.152
		c0.645,2.26,1.384,4.481,2.215,6.673c1.004,2.639,2.119,5.242,3.308,7.875c0.331,0.688,0.635,1.449,0.919,2.258
		c0.285,0.828,0.428,1.638,0.428,2.42c0,0.929-0.188,1.657-0.568,2.206c-0.401,0.544-0.947,0.805-1.684,0.805
		c-0.689,0-1.352-0.235-1.97-0.687c-0.588-0.452-1.185-1.043-1.731-1.78c-0.546-0.733-1.048-1.566-1.516-2.488
		c-0.455-0.952-0.885-1.901-1.266-2.896c-0.374-1.004-0.709-1.953-0.994-2.878c-0.284-0.92-0.524-1.75-0.734-2.463
		c-1.115-3.938-1.896-7.974-2.304-12.077c-0.371-3.814-0.566-7.578-0.588-11.27C11.458,87.951,13.657,92.762,16.446,97.152"/>
	<path fill="#00365B" d="M240.924,39.328v22.939l-7.432-22.939h-11.076v50.945h11.076v-23.16l6.896,23.16h11.607V39.328H240.924z
		 M203.857,39.328v50.945h13.245V39.328H203.857z M179.369,39.328v50.945h21.303V80.079h-8.057V39.328H179.369z M162.103,79.288
		c0,1.809-0.118,2.979-0.362,3.525c-0.242,0.549-0.736,0.82-1.496,0.82c-0.736,0-1.227-0.299-1.48-0.896
		c-0.247-0.596-0.376-1.879-0.376-3.854V60.037c0-2.146,0.131-3.494,0.376-4.047c0.255-0.554,0.759-0.833,1.516-0.833
		c0.752,0,1.246,0.279,1.483,0.833c0.226,0.554,0.341,1.901,0.341,4.047L162.103,79.288L162.103,79.288z M174.203,56.578
		c-0.404-1.449-1.168-2.855-2.276-4.218c-1.108-1.367-2.688-2.472-4.737-3.325c-2.05-0.851-4.492-1.276-7.346-1.276
		c-3.4,0-6.189,0.663-8.376,1.983c-2.179,1.325-3.688,3.076-4.53,5.256c-0.838,2.178-1.256,5.212-1.256,9.089v10.701
		c0,3.548,0.23,6.206,0.689,7.983c0.465,1.768,1.233,3.281,2.313,4.526c1.088,1.249,2.6,2.185,4.553,2.802
		c1.947,0.615,4.328,0.928,7.146,0.928c2.515,0,4.739-0.366,6.681-1.093c1.939-0.718,3.525-1.846,4.771-3.36
		c1.238-1.521,2.045-3.159,2.42-4.91c0.382-1.748,0.572-4.5,0.572-8.261V63.183C174.822,60.221,174.617,58.021,174.203,56.578z
		 M128.398,48.514v41.76h13.092v-41.76H128.398z M128.398,39.328v6.642h13.092v-6.642H128.398z M110.095,68.088
		c0.467,0.462,0.7,1.782,0.7,3.961v4.752c0,2.061-0.262,3.344-0.776,3.869c-0.512,0.529-1.703,0.821-3.565,0.884V67.299
		C108.421,67.364,109.641,67.628,110.095,68.088z M109.208,48.328c0.473,0.168,0.848,0.573,1.147,1.214
		c0.289,0.641,0.442,1.753,0.442,3.349c0,3.021-0.183,4.854-0.536,5.49c-0.361,0.644-1.192,0.962-2.487,0.962
		c-0.314,0-0.754,0.013-1.318,0.027V48.043C107.811,48.067,108.732,48.159,109.208,48.328z M93.204,90.274h15.322
		c5.331,0,8.852-0.311,10.572-0.915c1.721-0.604,2.977-1.74,3.763-3.399c0.789-1.653,1.182-4.206,1.182-7.646v-4.724
		c0-3.319-0.549-5.777-1.637-7.388c-1.093-1.602-3.167-2.751-6.23-3.444c2.749-0.625,4.589-1.527,5.521-2.699
		c0.935-1.183,1.402-3.251,1.402-6.229c0-4.4-0.66-7.59-1.983-9.576c-1.32-1.978-3.054-3.293-5.202-3.945
		c-2.156-0.652-5.323-0.978-9.494-0.978H93.204V90.274z"/>
	<polygon fill="#00365B" points="257.35,90.274 280.322,90.274 280.322,80.079 270.596,80.079 270.596,68.879 278.867,68.879 
		278.867,59.185 270.596,59.185 270.596,49.523 279.438,49.523 279.438,39.328 257.35,39.328 	"/>
	<rect x="92.455" y="95.429" fill="#1B71AD" width="188.176" height="4.512"/>
	<rect x="95.636" y="108.071" fill="#231F20" width="1.538" height="7.335"/>
	<polygon fill="#231F20" points="112.249,115.406 113.723,115.406 113.723,110.481 116.605,115.406 118.133,115.406 
		118.133,108.071 116.662,108.071 116.662,112.986 113.799,108.071 112.249,108.071 	"/>
	<polygon fill="#231F20" points="133.215,115.406 134.694,115.406 134.694,110.481 137.574,115.406 139.102,115.406 
		139.102,108.071 137.628,108.071 137.628,112.986 134.766,108.071 133.215,108.071 	"/>
	<path fill="#231F20" d="M157.312,109.205c1.159,0,1.882,0.964,1.882,2.507c0,1.57-0.71,2.542-1.861,2.542
		c-1.183-0.008-1.908-0.96-1.908-2.542C155.423,110.189,156.162,109.205,157.312,109.205z M157.33,107.887
		c-2.086,0-3.449,1.529-3.449,3.858c0,2.3,1.379,3.838,3.441,3.838c2.039,0,3.418-1.548,3.418-3.838
		C160.74,109.445,159.361,107.887,157.33,107.887z"/>
	<polygon fill="#231F20" points="174.76,108.071 177.039,115.406 178.765,115.406 181.084,108.071 179.5,108.071 177.918,113.218 
		176.352,108.071 	"/>
	<path fill="#231F20" d="M198.529,112.596h-1.842l0.926-2.734L198.529,112.596z M198.408,108.058h-1.574l-2.649,7.348h1.567
		l0.564-1.634h2.592l0.549,1.634h1.603L198.408,108.058z"/>
	<polygon fill="#231F20" points="219.815,108.071 214.097,108.071 214.097,109.438 216.19,109.438 216.19,115.406 217.724,115.406 
		217.724,109.438 219.815,109.438 	"/>
	<rect x="234.342" y="108.071" fill="#231F20" width="1.531" height="7.335"/>
	<path fill="#231F20" d="M254.074,109.205c1.166,0,1.891,0.964,1.891,2.507c0,1.57-0.719,2.542-1.871,2.542
		c-1.182-0.008-1.9-0.96-1.9-2.542C252.191,110.189,252.922,109.205,254.074,109.205z M254.092,107.887
		c-2.08,0-3.445,1.529-3.445,3.858c0,2.3,1.375,3.838,3.439,3.838c2.041,0,3.422-1.548,3.422-3.838
		C257.508,109.445,256.129,107.887,254.092,107.887z"/>
	<polygon fill="#231F20" points="272.273,115.406 273.754,115.406 273.754,110.481 276.639,115.406 278.162,115.406 
		278.162,108.071 276.697,108.071 276.697,112.986 273.828,108.071 272.273,108.071 	"/>
</g>
</svg>
